<?xml version="1.0" encoding="utf-8"?>
<!-- Generator: Adobe Illustrator 16.0.0, SVG Export Plug-In . SVG Version: 6.00 Build 0)  -->
<!DOCTYPE svg PUBLIC "-//W3C//DTD SVG 1.1//EN" "http://www.w3.org/Graphics/SVG/1.1/DTD/svg11.dtd">
<svg version="1.1" xmlns="http://www.w3.org/2000/svg" xmlns:xlink="http://www.w3.org/1999/xlink" x="0px" y="0px"
	 width="251.76px" height="158.64px" viewBox="0 0 251.76 158.64" enable-background="new 0 0 251.76 158.64" xml:space="preserve">
<g id="Layer_1">
</g>
<g id="Layer_2">
	<g>
		<g>
			<path fill-rule="evenodd" clip-rule="evenodd" fill="#FFFFFF" d="M78.72,158.64c-26.16,0-52.32,0-78.479,0
				c0-52.8,0-105.6,0-158.399c38.88,0,77.76,0,116.64,0c-0.021,0.63-0.537,0.487-0.883,0.526
				c-8.362,0.935-14.812,5.176-19.951,11.616c-3.738,4.687-6.273,9.997-7.844,15.773c-0.071,0.261-0.206,0.521-0.082,0.904
				c1.943-1.042,4.08-1.263,6.205-1.585c1.947-0.296,3.78-0.913,5.396-2.147c1.432-1.094,3.149-1.351,4.904-1.088
				c0.854,0.128,1.602,0.474,1.48,1.634c-0.08,0.764,0.651,0.925,1.18,1.167c1.943,0.893,3.061,2.392,3.305,4.509
				c0.091,0.793,0.048,1.59-0.759,2.099c-0.725-0.384-0.859-1.171-1.321-1.706c-0.882-1.02-1.868-0.979-2.762,0.156
				c0.118,0.513,0.573,0.748,0.944,1.021c0.99,0.729,1.733,1.663,2.277,2.74c0.512,1.016,1.231,1.764,2.296,2.156
				c1.526,0.562,2.49,1.838,3.665,2.846c0.433,0.371,0.372,0.755-0.021,1.119c-0.668,0.623-0.458,1.08,0.241,1.5
				c1.207,0.725,2.136,1.802,3.278,2.612c0.986,0.7,2.106,1.134,3.174,1.675c1.495,0.757,1.787,1.994,0.798,3.333
				c-0.229,0.311-0.478,0.589-0.204,0.948c0.447,0.586,0.004,0.934-0.33,1.306c0.2,0.73,0.781,1.124,1.218,1.628
				c0.681,0.785,0.624,1.239-0.204,1.988c-0.069,0.073-0.153,0.082-0.257,0.038c0.159,0.184,0.236-0.087,0.362-0.049
				c1.276,0.309,1.461,0.598,1.137,1.818c-0.216,0.813-0.445,1.615-0.457,2.469c-0.01,0.786,0.313,1.29,1.054,1.55
				c0.565,0.198,1.145,0.366,1.664,0.679c0.273,0.165,0.688,0.39,0.559,0.694c-0.373,0.876,0.349,1.043,0.798,1.321
				c1.375,0.847,2.644,1.744,3.421,3.257c0.491,0.958,1.47,1.3,2.557,1.239c0.43-0.024,0.867-0.213,1.289,0.032
				c0.339,0.365-0.164,0.648-0.105,0.974c0.225,0.21,0.469,0.104,0.7,0.092c0.358-0.02,0.768-0.113,0.977,0.265
				c0.242,0.438-0.11,0.749-0.361,1.05c-0.649,0.777-1.44,1.371-2.391,1.736c0.626,1.249,0.412,1.692-0.917,1.746
				c-0.93,0.037-1.811,0.215-2.704,0.452c-1.699,0.451-3.397,0.497-5.039-0.298c-0.583-0.282-1.231-0.331-1.861-0.44
				c-2.477-0.432-2.156-0.043-3.16,1.767c-0.369,0.665-0.259,1.465,0.554,1.683c1.439,0.387,1.802,1.445,1.988,2.684
				c0.244,1.625,0.337,1.674,1.896,1.26c7.448-1.987,12.918-6.679,17.27-12.803c4.425-6.229,6.768-13.281,7.825-20.795
				c0.446-3.173,0.569-6.366,0.488-9.567c-0.049-1.91-0.266-2.131-2.111-2.313c-2.559-0.252-5.054-0.782-7.48-1.642
				c-2-0.709-3.676-1.943-5.277-3.271c-2.57-2.129-5.32-3.962-8.345-5.379c-0.988-0.463-1.872-1.09-2.622-1.876
				c-1.002-1.05-0.822-2.061,0.474-2.691c1.138-0.553,2.325-0.504,3.513-0.163c1.628,0.469,3.048,1.398,4.583,2.089
				c-0.695-2.539-2.258-3.979-4.618-4.707c-2.851-0.879-5.754-0.855-8.667-0.826c-1.239,0.013-2.064-0.514-2.584-1.582
				c-0.479-0.983-0.236-1.502,0.797-1.798c0.192-0.056,0.39-0.094,0.59-0.104c2.225-0.105,4.461,0.145,6.399-0.282
				c-2.641-0.689-5.655-0.675-8.621-1.048c-0.956-0.121-1.781-0.474-2.382-1.234c-0.355-0.449-0.606-0.972-0.322-1.555
				c0.258-0.532,0.763-0.675,1.307-0.693c1.199-0.039,2.399-0.005,3.599-0.021c0.234-0.003,0.482,0.039,0.78-0.178
				c-0.344-0.543-0.903-0.834-1.405-1.168c-0.901-0.601-1.775-1.227-2.502-2.042c-0.5-0.56-0.805-1.195-0.807-1.949
				c-0.005-1.663,1.016-2.313,2.505-1.607c0.797,0.378,1.557,0.819,2.34,1.372c-0.458-0.848-0.678-1.657-0.013-2.495
				c0.731-0.921,1.167-1.035,2.091-0.307c0.816,0.643,1.577,1.36,2.327,2.073c2.786,2.64,5.75,5.083,8.521,7.737
				c0.982,0.941,2.15,1.637,3.415,1.923c3.894,0.883,6.431,3.565,8.89,6.385c0.526,0.603,1.058,1.197,1.601,1.766
				c-3.159-8.015-9.588-15.856-17.758-19.375c-2.656-1.145-5.413-1.957-8.334-2.088c-0.383-0.017-0.928,0.125-1.007-0.532
				c44.24,0,88.48,0,132.72,0c0,52.8,0,105.6,0,158.399c-27.28,0-54.56,0-81.84,0c-0.077-0.13-0.061-0.248,0.05-0.35
				c1.567-0.611,2.101-1.819,2.026-3.42c-0.046-0.995,0.014-1.994-0.016-2.99c-0.051-1.71-0.687-2.548-2.342-2.797
				c-2.294-0.346-4.613-0.339-6.907,0.004c-1.424,0.213-2.11,0.955-2.255,2.383c-0.145,1.427-0.121,2.866-0.001,4.299
				c0.104,1.255,0.929,1.975,1.966,2.516c0.104,0.107,0.117,0.228,0.039,0.355c-20.961,0-41.92,0-62.881,0
				c-0.074-0.142-0.05-0.264,0.072-0.367c1.478-0.492,1.954-1.623,1.966-3.063c0.014-1.636,0.012-3.271,0.003-4.906
				c-0.001-0.316-0.009-0.637-0.276-0.931c-0.548,0.227-0.438,0.708-0.444,1.101c-0.024,1.596,0.019,3.192-0.02,4.788
				c-0.042,1.738-0.667,2.418-2.364,2.503c-1.474,0.074-2.954,0.085-4.428-0.006c-1.677-0.103-2.266-0.744-2.294-2.414
				c-0.027-1.595,0.007-3.192-0.016-4.788c-0.006-0.409,0.128-0.895-0.375-1.172c-0.47,0.305-0.338,0.783-0.343,1.193
				c-0.021,1.595,0.03,3.193-0.02,4.788c-0.043,1.377,0.335,2.435,1.749,2.905c0.121,0.105,0.144,0.229,0.069,0.369
				c-2.239,0-4.479,0-6.719,0c-0.079-0.129-0.063-0.248,0.042-0.354c1.688-0.647,2.146-1.964,2.037-3.639
				c-0.064-0.992,0.026-1.995-0.029-2.991c-0.081-1.486-0.733-2.309-2.203-2.547c-2.333-0.381-4.691-0.357-7.028-0.022
				c-1.429,0.205-2.118,0.953-2.262,2.378c-0.145,1.428-0.12,2.87-0.001,4.303c0.104,1.255,0.927,1.977,1.965,2.518
				C78.785,158.392,78.798,158.512,78.72,158.64z"/>
			<path fill-rule="evenodd" clip-rule="evenodd" fill="#00263C" d="M119.04,0.24c0.069,0.262,0.285,0.222,0.477,0.229
				c5.924,0.257,11.069,2.513,15.637,6.176c5.399,4.33,9.035,9.944,11.674,16.264c0.026,0.065-0.003,0.154-0.016,0.409
				c-0.416-0.421-0.758-0.756-1.088-1.103c-0.331-0.348-0.656-0.701-0.975-1.059c-1.223-1.374-2.437-2.754-3.769-4.026
				c-1.003-0.958-2.157-1.617-3.472-2.041c-0.794-0.256-1.569-0.573-2.351-0.87c-1.396-0.53-2.581-1.342-3.688-2.37
				c-3.518-3.26-7.116-6.434-10.686-9.637c-0.117-0.104-0.261-0.177-0.413-0.278c-0.503,0.623-1.363,1.042-1.268,1.944
				c0.077,0.719,0.697,1.298,0.868,2.154c-1.434-1.06-2.771-2.051-4.387-2.507c-1.128,1.336-1.141,2.571-0.053,3.764
				c0.735,0.806,1.669,1.361,2.555,1.974c0.655,0.453,1.332,0.874,1.982,1.488c-0.808,0.272-1.57,0.188-2.311,0.228
				c-1.038,0.056-2.079,0.027-3.119,0.063c-1.018,0.035-1.262,0.439-0.897,1.386c0.267,0.694,0.8,1.069,1.479,1.271
				c1,0.299,2.032,0.406,3.068,0.46c2.555,0.132,5.084,0.445,7.719,1.052c-1.187,0.472-2.309,0.536-3.43,0.563
				c-1.278,0.031-2.557-0.085-3.836,0.037c-0.639,0.062-1.252,0.163-1.783,0.52c0.042,0.475,0.239,0.818,0.397,1.176
				c0.375,0.853,1.017,1.308,1.956,1.315c0.399,0.003,0.801,0.012,1.198-0.021c1.882-0.154,3.784-0.089,5.621,0.188
				c1.335,0.203,2.717,0.571,3.982,1.16c0.318,0.149,0.62,0.375,0.869,0.626c1.193,1.205,1.911,2.696,2.64,4.332
				c-0.94-0.198-1.598-0.646-2.291-1.002c-1.101-0.564-2.199-1.141-3.405-1.436c-1.154-0.282-2.3-0.279-3.343,0.413
				c-0.792,0.526-0.886,1.017-0.325,1.793c0.403,0.559,0.947,0.974,1.536,1.316c0.929,0.54,1.854,1.093,2.819,1.567
				c2.308,1.136,4.454,2.528,6.367,4.23c3.345,2.976,7.253,4.553,11.663,5.021c1.148,0.122,2.288,0.324,3.559,0.508
				c0.069,0.736,0.186,1.518,0.213,2.304c0.334,9.775-1.527,19.053-6.447,27.587c-3.464,6.008-8.081,10.881-14.377,14.009
				c-2.154,1.07-4.411,1.824-6.837,2.267c-0.19-0.561-0.268-1.142-0.335-1.728c-0.04-0.355-0.082-0.715-0.18-1.059
				c-0.37-1.301-0.68-1.52-2.085-1.48c-0.565-0.862-0.818-1.714-0.036-2.659c0.374-0.451,0.628-1,0.709-1.637
				c1.698-0.003,3.295,0.12,4.774,0.763c1.78,0.775,3.519,0.504,5.249-0.047c0.465-0.148,0.876-0.272,1.372-0.238
				c0.697,0.048,1.413,0.037,2.045-0.379c-0.187-0.677-1.027-0.451-1.308-1.164c1.648-0.266,2.748-1.294,3.751-2.641
				c-0.819-0.383-1.641,0.407-2.396-0.231c0.145-0.375,0.656-0.53,0.726-0.996c-0.296-0.211-0.569-0.036-0.861,0.046
				c-1.538,0.432-2.805-0.345-3.28-1.349c-0.722-1.521-2.004-2.32-3.32-3.15c-0.551-0.347-1.229-0.574-1.44-1.287
				c0.205-0.249,0.484-0.143,0.709-0.252c-0.058-0.096-0.093-0.223-0.176-0.279c-0.601-0.414-1.314-0.558-1.988-0.796
				c-1.181-0.419-1.353-0.666-1.336-1.926c0.016-1.175,0.516-2.244,0.755-3.324c-0.328-0.699-0.988-0.625-1.526-0.797l0.036,0.022
				c0.107-0.116,0.212-0.233,0.32-0.349c0.612-0.652,0.644-1.01-0.054-1.571c-0.676-0.542-1.093-1.253-1.584-1.95
				c0.257-0.339,0.687-0.329,0.989-0.548c-0.156-0.468-0.695-0.647-0.866-1.063c0.117-0.364,0.428-0.407,0.643-0.566
				c0.988-0.733,1.015-1.988,0.016-2.717c-0.412-0.301-0.888-0.543-1.37-0.716c-1.3-0.466-2.434-1.195-3.464-2.092
				c-0.988-0.861-1.938-1.767-3.145-2.32c-0.081-0.864,0.218-1.428,1.188-1.644c-1.474-1.341-2.634-2.813-4.478-3.454
				c-0.853-0.296-1.459-0.891-1.862-1.744c-0.822-1.742-2.125-3.065-3.857-3.988c0.143-0.513,0.497-0.776,0.839-1.023
				c1.072-0.775,2.006-0.66,2.8,0.407c0.42,0.565,0.716,1.223,1.093,1.882c0.82-1.251,0.599-2.505,0.08-3.694
				c-0.484-1.114-1.252-2.036-2.445-2.508c-0.407-0.161-0.816-0.332-1.191-0.554c-0.731-0.433-0.766-0.701-0.257-1.562
				c-1.171-1.315-2.681-0.858-4.093-0.717c-0.705,0.07-1.39,0.415-1.944,0.877c-1.791,1.496-3.933,2.031-6.164,2.356
				c-1.339,0.196-2.693,0.321-3.988,0.752c-0.759,0.252-1.441,0.666-2.12,1.099c-0.25-0.485,0.042-0.88,0.151-1.279
				c1.859-6.881,4.965-13.109,9.832-18.368c4.308-4.656,9.457-7.924,15.762-9.171c0.938-0.186,1.88-0.358,2.841-0.39
				c0.218-0.007,0.496,0.081,0.596-0.241C117.6,0.24,118.32,0.24,119.04,0.24z"/>
			<path fill-rule="evenodd" clip-rule="evenodd" fill="#778A9D" d="M162.48,158.64c-0.005-0.075-0.009-0.151-0.013-0.227
				c1.128-0.577,6.366-0.572,7.474,0.008c-0.058,0.067-0.064,0.142-0.021,0.219C167.439,158.64,164.96,158.64,162.48,158.64z"/>
			<path fill-rule="evenodd" clip-rule="evenodd" fill="#8394A6" d="M78.72,158.64c0.052-0.078,0.047-0.153-0.015-0.223
				c1.125-0.588,6.392-0.579,7.482,0.013c-0.035,0.066-0.044,0.137-0.026,0.21C83.68,158.64,81.2,158.64,78.72,158.64z"/>
			<path fill-rule="evenodd" clip-rule="evenodd" fill="#8394A6" d="M99.632,158.44c-0.021,0.065-0.031,0.132-0.032,0.199
				c-2.24,0-4.479,0-6.72,0c0.027-0.075,0.019-0.146-0.023-0.214c0.185-0.234,0.446-0.338,0.726-0.354
				c1.777-0.098,3.556-0.104,5.332,0.002C99.194,158.092,99.454,158.196,99.632,158.44z"/>
			<path fill-rule="evenodd" clip-rule="evenodd" fill="#00293E" d="M145.069,130.02c1.304-1.896,2.523-3.67,3.743-5.445
				c2.824-4.115,5.663-8.222,8.457-12.357c0.434-0.643,0.883-0.903,1.657-0.854c1.146,0.072,2.301,0.019,3.517,0.019
				c0,7.458,0,14.832,0,22.254c-0.939,0-1.843,0-2.852,0c0-6.392,0-12.765,0-19.136c-0.084-0.035-0.169-0.068-0.252-0.103
				c-4.383,6.409-8.766,12.818-13.16,19.245c-0.729,0-1.441,0-2.22,0c-4.362-6.379-8.744-12.787-13.127-19.196
				c-0.076,0.025-0.153,0.051-0.23,0.077c0,6.357,0,12.714,0,19.115c-1.022,0-1.926,0-2.902,0c0-7.385,0-14.759,0-22.258
				c1.399,0,2.788,0.011,4.177-0.006c0.515-0.006,0.655,0.4,0.871,0.713c2.33,3.391,4.65,6.786,6.979,10.176
				C141.467,124.798,143.215,127.326,145.069,130.02z"/>
			<path fill-rule="evenodd" clip-rule="evenodd" fill="#002B40" d="M1.229,133.674c0-7.455,0-14.797,0-22.125
				c0.237-0.274,0.535-0.163,0.799-0.163c5.954-0.006,11.907-0.001,17.86-0.005c0.966-0.001,1.909,0.125,2.823,0.439
				c1.826,0.629,2.887,2.014,2.974,3.924c0.037,0.798-0.002,1.599,0.03,2.396c0.073,1.785-0.822,2.964-2.624,3.515
				c-0.146,0.047-0.304,0.055-0.525,0.092c0.3,0.275,0.626,0.218,0.901,0.293c2.031,0.562,2.976,1.617,3.118,3.706
				c0.082,1.194,0.103,2.403,0.003,3.594c-0.164,1.961-1.363,3.17-3.143,3.838c-0.747,0.28-1.531,0.487-2.332,0.489
				C14.525,133.679,7.936,133.674,1.229,133.674z"/>
			<path fill-rule="evenodd" clip-rule="evenodd" fill="#002B40" d="M225.57,126.711c0.977,0,1.842,0,2.805,0
				c0,0.553-0.014,1.062,0.003,1.571c0.058,1.79,0.856,2.704,2.618,2.987c0.514,0.084,1.034,0.174,1.551,0.172
				c4.034-0.013,8.073,0.195,12.105-0.137c0.448-0.037,0.852-0.199,1.277-0.294c0.152-0.033,0.29-0.13,0.435-0.197
				c1.428-0.661,1.745-2.505,1.502-4.467c-0.179-1.442-0.922-2.036-2.481-2.308c-0.833-0.146-1.664-0.199-2.505-0.198
				c-2.839,0.005-5.678-0.005-8.517-0.01c-1.563-0.003-3.11-0.147-4.64-0.466c-2.685-0.559-3.898-1.941-4.154-4.648
				c-0.087-0.923-0.083-1.832,0.026-2.75c0.244-2.059,1.305-3.453,3.292-4.138c1.3-0.449,2.648-0.628,3.999-0.651
				c3.197-0.058,6.397-0.045,9.596-0.015c1.196,0.011,2.389,0.183,3.557,0.454c2.662,0.616,3.786,1.881,4.12,4.574
				c0.063,0.513,0.106,1.02,0.046,1.585c-0.925,0-1.79,0-2.735,0c-0.074-0.507-0.182-1.043-0.225-1.584
				c-0.089-1.101-0.694-1.734-1.725-2.026c-0.77-0.218-1.548-0.383-2.349-0.406c-3.518-0.1-7.036-0.104-10.554-0.016
				c-0.689,0.019-1.337,0.225-2.01,0.309c-0.074,0.009-0.143,0.07-0.218,0.094c-1.627,0.494-2.197,1.73-2.029,4.1
				c0.121,1.711,0.898,2.487,2.639,2.687c1.108,0.128,2.231,0.158,3.351,0.175c3.396,0.055,6.796-0.075,10.192,0.097
				c1.165,0.058,2.298,0.286,3.369,0.744c1.45,0.619,2.389,1.663,2.701,3.263c0.248,1.274,0.256,2.558,0.09,3.816
				c-0.354,2.694-1.858,4.166-4.563,4.63c-0.984,0.169-1.974,0.276-2.979,0.271c-3.519-0.018-7.037-0.015-10.556-0.003
				c-1.209,0.005-2.389-0.17-3.539-0.516c-2.183-0.655-3.367-2.177-3.49-4.472C225.538,128.221,225.57,127.502,225.57,126.711z"/>
			<path fill-rule="evenodd" clip-rule="evenodd" fill="#002E44" d="M83.944,123.756c0.183,0.323,0.402,0.298,0.582,0.362
				c1.659,0.599,2.495,1.823,2.538,3.547c0.049,1.953,0.012,3.908,0.012,5.94c-0.944,0-1.837,0-2.839,0
				c0-1.51-0.004-3.017,0.002-4.524c0.002-0.602-0.042-1.189-0.188-1.78c-0.349-1.41-1.109-2.113-2.546-2.271
				c-0.278-0.03-0.559-0.053-0.837-0.053c-4.56-0.011-9.118-0.017-13.678-0.023c-0.439-0.001-0.878,0-1.488,0
				c-0.045,1.441-0.014,2.86-0.02,4.28c-0.006,1.434-0.001,2.868-0.001,4.375c-1.024,0-1.994,0-3.015,0c0-7.375,0-14.719,0-22.051
				c0.275-0.289,0.614-0.176,0.919-0.176c5.639-0.005,11.278-0.002,16.917-0.002c1.245-0.001,2.474,0.131,3.671,0.467
				c1.778,0.498,2.853,1.629,3.179,3.491c0.286,1.635,0.253,3.275,0.151,4.905c-0.12,1.912-1.079,2.895-2.993,3.375
				C84.204,123.646,84.104,123.695,83.944,123.756z"/>
			<path fill-rule="evenodd" clip-rule="evenodd" fill="#00293E" d="M189.036,123.486c-5.937,0-11.795,0-17.718,0
				c0,2.607,0,5.101,0,7.686c6.201,0,12.339,0,18.544,0c0,0.866,0,1.643,0,2.466c-7.16,0-14.306,0-21.538,0
				c0-7.343,0-14.716,0-22.175c7.074,0,14.202,0,21.413,0c0.153,0.758,0.077,1.539,0.04,2.455c-6.159,0-12.29,0-18.474,0
				c0,2.398,0,4.663,0,7.035c5.876,0,11.773,0,17.732,0C189.036,121.803,189.036,122.547,189.036,123.486z"/>
			<path fill-rule="evenodd" clip-rule="evenodd" fill="#002C42" d="M59.211,133.639c-1.191,0-2.257,0-3.415,0
				c-0.719-1.226-1.483-2.482-2.195-3.766c-0.313-0.564-0.627-0.871-1.368-0.865c-5.279,0.044-10.56,0.037-15.839,0.004
				c-0.669-0.004-1.007,0.248-1.306,0.793c-0.71,1.291-1.469,2.558-2.215,3.848c-1.104,0-2.177,0-3.273,0
				c-0.009-0.447,0.28-0.741,0.47-1.065c3.965-6.787,7.95-13.563,11.896-20.362c0.375-0.646,0.777-0.906,1.506-0.858
				c0.875,0.058,1.756,0.014,2.716,0.014C50.511,118.77,54.834,126.158,59.211,133.639z"/>
			<path fill-rule="evenodd" clip-rule="evenodd" fill="#002C42" d="M194.422,111.426c1.102,0,2.012,0,2.91,0
				c0.274,0.447,0.147,0.897,0.148,1.322c0.011,4.759,0.007,9.517,0.008,14.276c0,0.439-0.004,0.879,0.009,1.319
				c0.045,1.744,0.82,2.66,2.536,2.924c0.749,0.114,1.512,0.191,2.268,0.196c3.279,0.019,6.558,0.017,9.838-0.005
				c0.797-0.007,1.598-0.071,2.387-0.182c1.847-0.253,2.646-1.188,2.682-3.057c0.006-0.36,0.002-0.72,0.002-1.08
				c0-4.799,0-9.598,0-14.396c0-0.398,0-0.797,0-1.26c1.003-0.19,1.972-0.111,2.881-0.059c0.24,0.284,0.169,0.535,0.169,0.766
				c0.003,5.279-0.003,10.559,0.007,15.836c0.003,0.727-0.099,1.442-0.243,2.14c-0.419,2.001-1.813,3.033-3.71,3.444
				c-0.853,0.185-1.723,0.316-2.61,0.314c-4.239-0.014-8.478-0.018-12.717-0.001c-0.889,0.003-1.757-0.133-2.612-0.31
				c-2.505-0.516-3.787-2.121-3.934-4.857c-0.039-0.717-0.016-1.438-0.016-2.158c-0.002-4.64-0.002-9.278-0.002-13.917
				C194.422,112.291,194.422,111.899,194.422,111.426z"/>
			<path fill-rule="evenodd" clip-rule="evenodd" fill="#003046" d="M104.335,133.659c-1.079,0-1.993,0-3.025,0
				c0-6.535,0-13.063,0-19.685c-3.737,0-7.355,0-11.001,0c-0.234-0.902-0.119-1.719-0.082-2.539c8.389,0,16.727,0,25.109,0
				c0,0.838,0,1.613,0,2.501c-3.677,0-7.293,0-11.001,0C104.335,120.545,104.335,127.041,104.335,133.659z"/>
			<path fill-rule="evenodd" clip-rule="evenodd" fill="#002E44" d="M121.829,133.627c-0.989,0-1.93,0-2.918,0
				c0-7.396,0-14.737,0-22.156c0.952-0.177,1.894-0.067,2.918-0.078C121.829,118.796,121.829,126.166,121.829,133.627z"/>
			<path fill-rule="evenodd" clip-rule="evenodd" fill="#00293E" d="M120.001,95.074c2.464-0.015,4.929-0.044,7.393-0.042
				c4.095,0.005,8.189,0.028,12.284,0.043c0.151,1.015,0.6,2.03,0,3.045c-4.175,0.013-8.35,0.036-12.524,0.038
				c-2.624,0.001-5.248-0.025-7.872-0.038C118.683,96.789,118.862,96.027,120.001,95.074z"/>
			<path fill-rule="evenodd" clip-rule="evenodd" fill="#00334A" d="M139.678,98.12c-0.047-0.606,0.121-1.229-0.193-1.821
				c-0.228-0.428,0.186-0.805,0.193-1.224c3.611-0.013,7.224-0.03,10.835-0.036c1.428-0.002,2.856,0.023,4.285,0.037
				c0.542,1.015,0.547,2.029-0.001,3.044C149.758,98.179,144.718,98.193,139.678,98.12z"/>
			<path fill-rule="evenodd" clip-rule="evenodd" fill="#33556C" d="M76.563,98.12c-4.959,0.074-9.919,0.057-14.879-0.001
				c-0.551-1.014-0.326-2.027,0-3.042c4.96-0.058,9.919-0.082,14.879-0.002C77.097,96.09,77.104,97.105,76.563,98.12z"/>
			<path fill-rule="evenodd" clip-rule="evenodd" fill="#0F394E" d="M118.35,158.391c0-3.235,0-6.338,0-9.42
				c0.3-0.274,0.634-0.159,0.937-0.16c2.273-0.011,4.547-0.007,6.82-0.001c0.358,0.001,0.722-0.004,1.073,0.052
				c1.691,0.263,2.393,1.008,2.677,2.716c0.226,1.354,0.212,2.694-0.006,4.046c-0.274,1.705-1.209,2.7-2.931,2.747
				C124.097,158.447,121.27,158.391,118.35,158.391z"/>
			<path fill-rule="evenodd" clip-rule="evenodd" fill="#0F394E" d="M104.249,148.899c1.295-0.324,2.173,0.082,3.042,0.984
				c2.134,2.215,4.387,4.314,6.594,6.459c0.22,0.214,0.445,0.421,0.823,0.778c0-2.885,0-5.539,0-8.241
				c0.461-0.11,0.844-0.104,1.302-0.01c0,3.135,0,6.272,0,9.478c-1.047,0.125-1.933,0.15-2.797-0.753
				c-2.127-2.221-4.384-4.318-6.599-6.456c-0.271-0.261-0.468-0.651-1.032-0.706c0,2.647,0,5.258,0,7.845
				c-0.484,0.211-0.875,0.102-1.334,0.113C104.249,155.217,104.249,152.081,104.249,148.899z"/>
			<path fill-rule="evenodd" clip-rule="evenodd" fill="#164058" d="M154.797,98.12c0-1.015,0-2.029,0.001-3.044
				c4.8-0.081,9.6-0.063,14.399,0c0.486,0.982,0.843,1.976,0.239,3.044C164.557,98.178,159.676,98.193,154.797,98.12z"/>
			<path fill-rule="evenodd" clip-rule="evenodd" fill="#003248" d="M169.941,158.421c-2.492-0.003-4.982-0.005-7.474-0.008
				c-1.28-0.161-2.002-0.905-2.19-2.157c-0.27-1.784-0.3-3.578,0.03-5.354c0.253-1.363,0.971-1.998,2.364-2.103
				c2.311-0.172,4.629-0.155,6.939-0.016c1.686,0.102,2.563,0.96,2.67,2.64c0.094,1.472,0.091,2.958-0.003,4.43
				C172.183,157.394,171.426,158.139,169.941,158.421z"/>
			<path fill-rule="evenodd" clip-rule="evenodd" fill="#003248" d="M86.187,158.43c-2.494-0.005-4.987-0.009-7.482-0.013
				c-1.27-0.177-1.991-0.912-2.183-2.169c-0.272-1.784-0.302-3.576,0.025-5.35c0.251-1.353,0.977-2.012,2.365-2.104
				c2.39-0.16,4.787-0.163,7.176,0.007c1.429,0.102,2.3,0.97,2.41,2.499c0.11,1.548,0.112,3.115,0.002,4.663
				C88.394,157.455,87.697,158.088,86.187,158.43z"/>
			<path fill-rule="evenodd" clip-rule="evenodd" fill="#45637A" d="M61.684,95.077c0.268,1.014-0.125,2.028,0,3.042
				c-4.641,0.075-9.28,0.058-13.92,0c-0.364-1.014-0.866-2.028,0-3.043C52.403,95.022,57.043,95.002,61.684,95.077z"/>
			<path fill-rule="evenodd" clip-rule="evenodd" fill="#002B40" d="M175.816,158.263c-0.491,0.224-0.851,0.093-1.279,0.154
				c0-3.175,0-6.313,0-9.52c1.066-0.234,1.95-0.078,2.817,0.827c2.156,2.251,4.429,4.389,6.663,6.563
				c0.223,0.217,0.412,0.488,0.863,0.629c0-2.684,0-5.322,0-7.92c0.481-0.282,0.863-0.182,1.305-0.138c0,3.155,0,6.295,0,9.45
				c-1.191,0.31-2.082-0.007-2.962-0.919c-2.163-2.243-4.442-4.375-6.68-6.547c-0.195-0.188-0.349-0.44-0.728-0.543
				C175.816,152.961,175.816,155.598,175.816,158.263z"/>
			<path fill-rule="evenodd" clip-rule="evenodd" fill="#224860" d="M76.563,98.12c0-1.015,0-2.03,0-3.045
				c4.16-0.054,8.319-0.077,12.479-0.001c0.554,0.979,0.847,1.977,0.24,3.047C85.042,98.193,80.802,98.179,76.563,98.12z"/>
			<path fill-rule="evenodd" clip-rule="evenodd" fill="#294D65" d="M169.437,98.12c0.169-1.034-0.347-2.015-0.239-3.044
				c4.08-0.074,8.16-0.063,12.241,0.001c0.54,1.014,0.547,2.027-0.001,3.041C177.438,98.18,173.438,98.193,169.437,98.12z"/>
			<path fill-rule="evenodd" clip-rule="evenodd" fill="#00334A" d="M133.768,156.495c-0.357,0.597-0.724,1.207-1.11,1.852
				c-0.444,0.105-0.902,0.08-1.488-0.015c1.862-3.195,3.682-6.313,5.513-9.453c0.552-0.126,1.101-0.083,1.687-0.032
				c1.833,3.134,3.658,6.256,5.521,9.445c-0.51,0.217-0.969,0.051-1.419,0.143c-0.399-0.67-0.765-1.281-1.159-1.939
				C138.823,156.495,136.321,156.495,133.768,156.495z"/>
			<path fill-rule="evenodd" clip-rule="evenodd" fill="#164058" d="M89.281,98.121c0.161-1.035-0.271-2.023-0.24-3.047
				c3.76-0.063,7.521-0.08,11.281,0.003c0.856,0.953,0.733,1.983,0.24,3.043C96.802,98.193,93.042,98.182,89.281,98.121z"/>
			<path fill-rule="evenodd" clip-rule="evenodd" fill="#003046" d="M99.632,158.44c-2.259-0.005-4.517-0.01-6.775-0.015
				c-1.614-0.118-2.106-1.096-2.114-2.365c-0.015-2.353-0.004-4.706-0.004-7.086c0.422-0.264,0.837-0.163,1.375-0.094
				c0,0.973,0,1.922,0,2.87c0,1.355-0.012,2.714,0.004,4.07c0.014,1.152,0.31,1.503,1.469,1.59c0.913,0.067,1.834,0.022,2.752,0.024
				c0.838,0.001,1.678,0.032,2.514-0.013c1.307-0.07,1.68-0.472,1.688-1.792c0.014-2.229,0.004-4.459,0.004-6.695
				c0.431-0.207,0.813-0.143,1.301-0.046c0,1.262,0.001,2.531,0,3.8c-0.002,1.119,0.028,2.238-0.019,3.354
				C101.757,157.723,101.31,158.183,99.632,158.44z"/>
			<path fill-rule="evenodd" clip-rule="evenodd" fill="#567086" d="M47.764,95.076c-0.076,0.472-0.29,0.887-0.059,1.435
				c0.194,0.462,0.052,1.067,0.059,1.608c-3.601,0.075-7.201,0.059-10.801,0c-0.357-0.992-0.33-2.014-0.24-3.04
				C40.403,95.021,44.083,95.002,47.764,95.076z"/>
			<path fill-rule="evenodd" clip-rule="evenodd" fill="#003248" d="M74.329,152.849c0.121,0.489,0.16,0.796-0.051,1.203
				c-2.33,0-4.71,0-7.185,0c0,1.485,0,2.866,0,4.223c-0.471,0.197-0.851,0.15-1.286,0.074c0-3.152,0-6.289,0-9.486
				c2.964,0,5.898,0,8.837,0c0.208,0.364,0.188,0.695-0.088,1.104c-2.411,0-4.875,0-7.412,0c0,0.981,0,1.879,0,2.883
				C69.515,152.849,71.895,152.849,74.329,152.849z"/>
			<path fill-rule="evenodd" clip-rule="evenodd" fill="#33556C" d="M181.438,98.118c0-1.014,0-2.027,0.001-3.041
				c3.199-0.077,6.398-0.059,9.597,0c0.545,1.015,0.549,2.028,0,3.042C187.837,98.176,184.638,98.193,181.438,98.118z"/>
			<path fill-rule="evenodd" clip-rule="evenodd" fill="#002E44" d="M120.001,95.074c-0.002,0.039,0.011,0.096-0.01,0.115
				c-0.894,0.818-0.701,1.899-0.709,2.931c-3.12,0.068-6.241,0.063-9.36-0.001c-0.551-1.014-0.251-2.028,0-3.042
				C113.281,95.011,116.641,95,120.001,95.074z"/>
			<path fill-rule="evenodd" clip-rule="evenodd" fill="#00334A" d="M109.921,95.077c0.37,1.014-0.123,2.028,0,3.042
				c-3.12,0.069-6.239,0.061-9.358,0.001c-0.045-1.017,0.138-2.052-0.24-3.043C103.522,95.014,106.722,95.004,109.921,95.077z"/>
			<path fill-rule="evenodd" clip-rule="evenodd" fill="#45637A" d="M191.035,98.119c0-1.014,0-2.027,0-3.042
				c2.962-0.075,5.922-0.061,8.883,0c0.203,1.072-0.089,2.065-0.479,3.044C196.638,98.181,193.836,98.197,191.035,98.119z"/>
			<path fill-rule="evenodd" clip-rule="evenodd" fill="#627A8F" d="M36.724,95.079c0.533,0.978,0.316,2.014,0.24,3.04
				c-2.719,0.074-5.438,0.059-8.157,0.002c-0.504-0.981-0.494-2.003-0.24-3.044C31.285,95.016,34.004,95.004,36.724,95.079z"/>
			<path fill-rule="evenodd" clip-rule="evenodd" fill="#4D6A7F" d="M199.438,98.121c-0.107-1.057,0.138-2.058,0.479-3.044
				c2.64-0.075,5.28-0.063,7.92,0.002c0.401,1.013,0.294,2.026,0,3.039C205.038,98.182,202.238,98.191,199.438,98.121z"/>
			<path fill-rule="evenodd" clip-rule="evenodd" fill="#0F394E" d="M149.046,158.34c0-2.789,0-5.497,0-8.295
				c-1.563-0.191-3.109,0.006-4.587-0.111c-0.281-0.353-0.171-0.668-0.14-1.054c3.572,0,7.146,0,10.721,0
				c0.182,0.302,0.142,0.608,0.029,1.009c-1.467,0.187-2.974-0.005-4.605,0.116c0,2.771,0,5.537,0,8.259
				C149.947,158.472,149.561,158.425,149.046,158.34z"/>
			<path fill-rule="evenodd" clip-rule="evenodd" fill="#567086" d="M207.838,98.118c-0.313-1.013-0.057-2.026,0-3.039
				c2.319-0.073,4.64-0.058,6.959,0.001c0.412,1.051,0.196,2.054-0.24,3.039C212.317,98.178,210.077,98.189,207.838,98.118z"/>
			<path fill-rule="evenodd" clip-rule="evenodd" fill="#627A8F" d="M214.557,98.119c-0.113-1.027,0.145-2.027,0.24-3.039
				c2.159-0.08,4.318-0.06,6.478-0.005c0.348,1.05,0.227,2.063-0.24,3.049C218.874,98.123,216.716,98.121,214.557,98.119z"/>
			<path fill-rule="evenodd" clip-rule="evenodd" fill="#97A5B5" d="M233.271,98.126c-1.52-0.002-3.039-0.002-4.558-0.003
				c-0.535-1.017-0.531-2.032,0-3.049c1.438,0,2.878-0.002,4.318-0.003C233.695,96.044,233.873,97.055,233.271,98.126z"/>
			<path fill-rule="evenodd" clip-rule="evenodd" fill="#0F394E" d="M157.854,158.348c-0.431,0.077-0.815,0.126-1.249-0.042
				c0-3.116,0-6.241,0-9.358c0.411-0.233,0.796-0.142,1.249-0.084C157.854,151.995,157.854,155.122,157.854,158.348z"/>
			<path fill-rule="evenodd" clip-rule="evenodd" fill="#778A9D" d="M28.566,95.077c0.373,0.991,0.189,2.026,0.24,3.044
				c-1.44,0.079-2.88,0.048-4.32,0c-0.505-0.98-0.494-2.002-0.239-3.043C25.687,95.078,27.126,95.077,28.566,95.077z"/>
			<path fill-rule="evenodd" clip-rule="evenodd" fill="#8394A6" d="M228.714,95.074c0,1.017,0,2.032,0,3.049
				c-1.358,0-2.719,0.001-4.077,0.001c-0.492-1.06-0.616-2.093,0.24-3.05C226.155,95.074,227.435,95.074,228.714,95.074z"/>
			<path fill-rule="evenodd" clip-rule="evenodd" fill="#8B9AAC" d="M24.247,95.078c0.372,0.992,0.188,2.026,0.239,3.043
				c-1.28,0-2.561,0-3.842-0.001c-0.549-1.014-0.547-2.028,0-3.042C21.846,95.021,23.046,95.006,24.247,95.078z"/>
			<path fill-rule="evenodd" clip-rule="evenodd" fill="#ACB6C4" d="M233.271,98.126c0.134-1.034-0.13-2.038-0.239-3.055
				c1.28,0,2.561-0.003,3.841-0.006c0.726,1.022,0.727,2.045,0,3.067C235.671,98.131,234.472,98.13,233.271,98.126z"/>
			<path fill-rule="evenodd" clip-rule="evenodd" fill="#778A9D" d="M224.877,95.074c-0.376,0.994-0.193,2.031-0.24,3.05
				c-1.201,0-2.402,0-3.603,0c0.016-1.022-0.059-2.05,0.24-3.049C222.475,95,223.676,95.02,224.877,95.074z"/>
			<path fill-rule="evenodd" clip-rule="evenodd" fill="#EAEDF1" d="M245.517,95.044c0.758-0.001,1.516-0.012,2.273-0.001
				c0.925,0.013,1.252,0.332,1.326,1.278c0.019,0.239,0.004,0.479,0.004,0.719c0,0.316,0,0.63,0,1.114c-1.244,0-2.424,0-3.604,0
				C244.977,97.117,244.976,96.081,245.517,95.044z"/>
			<path fill-rule="evenodd" clip-rule="evenodd" fill="#ACB6C4" d="M14.407,95.064c1.121,0.002,2.241,0.007,3.361,0.008
				c0.529,1.018,0.532,2.035,0,3.052c-1.121,0.006-2.241,0.007-3.362,0.011C13.855,97.111,13.855,96.088,14.407,95.064z"/>
			<path fill-rule="evenodd" clip-rule="evenodd" fill="#BDC4D0" d="M14.407,95.064c0,1.023,0,2.047,0,3.07
				c-1.12,0.002-2.24,0.004-3.36,0.006c-0.553-1.027-0.552-2.055,0-3.082C12.167,95.061,13.286,95.063,14.407,95.064z"/>
			<path fill-rule="evenodd" clip-rule="evenodd" fill="#BDC4D0" d="M236.873,98.133c0.247-1.022,0.245-2.045,0-3.067
				c1.12-0.001,2.239-0.005,3.361-0.009c0.551,1.028,0.552,2.057-0.001,3.084C239.112,98.139,237.993,98.136,236.873,98.133z"/>
			<path fill-rule="evenodd" clip-rule="evenodd" fill="#CDD2DB" d="M11.046,95.059c0,1.027,0,2.055,0,3.082
				c-0.96,0.002-1.92,0.004-2.881,0.006c-0.451-1.002-0.67-2.021-0.239-3.092C8.966,95.057,10.006,95.058,11.046,95.059z"/>
			<path fill-rule="evenodd" clip-rule="evenodd" fill="#D9DDE5" d="M245.517,95.044c0,1.037-0.001,2.073-0.001,3.11
				c-0.96-0.002-1.92-0.004-2.88-0.005c-0.538-1.033-0.538-2.066,0.001-3.101C243.598,95.048,244.557,95.046,245.517,95.044z"/>
			<path fill-rule="evenodd" clip-rule="evenodd" fill="#97A5B5" d="M17.769,98.124c0-1.017,0-2.034,0-3.052
				c0.959,0.002,1.918,0.004,2.876,0.006c0,1.014,0,2.028,0,3.042C19.686,98.123,18.728,98.124,17.769,98.124z"/>
			<path fill-rule="evenodd" clip-rule="evenodd" fill="#EAEDF1" d="M5.286,98.152c-0.906,0-1.812,0-2.777,0
				c-0.201-0.828-0.081-1.615-0.103-2.391c-0.015-0.487,0.264-0.719,0.742-0.719c0.712,0,1.425,0.004,2.138,0.005
				C5.822,96.083,5.822,97.117,5.286,98.152z"/>
			<path fill-rule="evenodd" clip-rule="evenodd" fill="#D9DDE5" d="M5.286,98.152c0-1.035,0-2.069,0-3.104
				c0.88,0.003,1.76,0.005,2.64,0.007c0.113,1.028,0.332,2.047,0.239,3.092C7.206,98.147,6.246,98.15,5.286,98.152z"/>
			<path fill-rule="evenodd" clip-rule="evenodd" fill="#CDD2DB" d="M242.637,95.049c0,1.034-0.001,2.067-0.001,3.101
				c-0.801-0.003-1.602-0.006-2.402-0.009c0-1.027,0-2.056,0.001-3.084C241.035,95.055,241.836,95.052,242.637,95.049z"/>
			<path fill-rule="evenodd" clip-rule="evenodd" fill="#00263C" d="M122.577,57.075c0.105,0.076,0.097,0.145-0.018,0.199
				c-0.016,0.008-0.046-0.014-0.07-0.022c0.041-0.051,0.083-0.103,0.124-0.155L122.577,57.075z"/>
			<path fill-rule="evenodd" clip-rule="evenodd" fill="#FAFAFB" d="M4.259,131.07c0-2.446,0-4.946,0-7.451
				c0.264-0.266,0.602-0.168,0.908-0.168c4.716-0.006,9.432-0.009,14.148,0.004c0.677,0.002,1.36,0.05,2.029,0.148
				c1.363,0.2,2.113,1.031,2.187,2.424c0.046,0.877,0.048,1.76,0.011,2.637c-0.055,1.255-0.761,2.092-1.99,2.354
				c-0.582,0.124-1.187,0.194-1.782,0.195c-4.956,0.013-9.912,0.006-14.868,0.003C4.708,131.217,4.505,131.253,4.259,131.07z"/>
			<path fill-rule="evenodd" clip-rule="evenodd" fill="#FDFDFE" d="M4.231,120.892c0-2.305,0-4.54,0-6.764
				c0.321-0.286,0.696-0.184,1.042-0.185c4.671-0.007,9.343-0.005,14.014-0.003c0.319,0,0.64,0.009,0.957,0.038
				c1.706,0.15,2.498,0.991,2.5,2.713c0,0.752,0.053,1.506-0.113,2.264c-0.211,0.965-0.766,1.533-1.695,1.788
				c-0.423,0.116-0.842,0.223-1.291,0.222c-4.991-0.008-9.981-0.007-14.972-0.011C4.559,120.954,4.443,120.923,4.231,120.892z"/>
			<path fill-rule="evenodd" clip-rule="evenodd" fill="#FFFFFF" d="M65.526,122.396c0-2.845,0-5.584,0-8.281
				c0.237-0.256,0.493-0.168,0.718-0.168c4.755,0.006,9.51,0.025,14.265,0.027c0.689,0,1.354,0.129,2.004,0.314
				c1.069,0.304,1.678,1.053,1.731,2.176c0.051,1.117,0.047,2.238,0.002,3.356c-0.042,1.008-0.599,1.718-1.522,2.104
				c-0.663,0.276-1.36,0.468-2.086,0.468C75.645,122.399,70.653,122.396,65.526,122.396z"/>
			<path fill-rule="evenodd" clip-rule="evenodd" fill="#FCFCFD" d="M44.329,113.938c2.472,4.241,4.855,8.33,7.291,12.511
				c-4.876,0-9.62,0-14.564,0C39.487,122.265,41.861,118.184,44.329,113.938z"/>
			<path fill-rule="evenodd" clip-rule="evenodd" fill="#FDFDFE" d="M119.736,157.259c0-2.455,0-4.798,0-7.174
				c0.494-0.227,1.019-0.11,1.524-0.114c1.718-0.015,3.437-0.018,5.155,0.003c1.321,0.016,1.852,0.388,2.095,1.648
				c0.258,1.336,0.268,2.707-0.02,4.044c-0.247,1.156-0.729,1.56-1.914,1.581C124.342,157.287,122.105,157.259,119.736,157.259z"/>
			<path fill-rule="evenodd" clip-rule="evenodd" fill="#FCFCFD" d="M166.142,157.434c-0.879,0-1.758,0.029-2.635-0.006
				c-1.435-0.061-1.989-0.652-2.007-2.103c-0.015-1.158-0.016-2.315,0.002-3.474c0.022-1.377,0.533-1.949,1.951-2.027
				c1.314-0.07,2.635-0.034,3.952-0.021c0.716,0.007,1.436-0.076,2.146,0.102c0.911,0.229,1.335,0.619,1.37,1.538
				c0.055,1.435,0.067,2.875,0.01,4.31c-0.046,1.122-0.65,1.619-1.916,1.674C168.059,157.467,167.1,157.435,166.142,157.434z"/>
			<path fill-rule="evenodd" clip-rule="evenodd" fill="#FCFCFD" d="M82.408,157.428c-0.917,0-1.837,0.034-2.754-0.009
				c-1.309-0.06-1.888-0.653-1.913-1.94c-0.022-1.237-0.02-2.476,0.005-3.713c0.025-1.229,0.465-1.804,1.675-1.897
				c2.028-0.156,4.069-0.152,6.097-0.001c1.219,0.092,1.635,0.642,1.672,1.905c0.036,1.237,0.038,2.476,0.003,3.712
				c-0.037,1.317-0.595,1.882-1.913,1.94c-0.956,0.042-1.916,0.008-2.874,0.008C82.408,157.43,82.408,157.43,82.408,157.428z"/>
			<path fill-rule="evenodd" clip-rule="evenodd" fill="#FAFAFB" d="M140.615,155.241c-2.094,0-4.029,0-6.145,0
				c1.028-1.772,1.99-3.431,3.057-5.271C138.599,151.799,139.569,153.456,140.615,155.241z"/>
		</g>
	</g>
	<rect x="63.563" y="158.4" fill="#FFFFFF" width="87.688" height="0.472"/>
</g>
</svg>
